<svg width="33" height="34" viewBox="0 0 33 34" fill="none" xmlns="http://www.w3.org/2000/svg">
<path d="M16.0483 9.8795C14.2505 8.73376 9.40691 6.60811 5.54512 9.02017C-0.416562 12.7438 -1.71434 26.2713 9.07227 32C12.2003 33.6613 15.4936 33.05 16.479 31.1963C16.5191 31.1209 16.637 31.113 16.6902 31.1799C17.6464 32.3819 22.4723 34.4916 26.5728 30.7894C31.9661 25.92 35.3978 13.0622 27.6865 7.8746C22.577 4.43737 17.1837 7.96994 16.0483 9.8795ZM16.0483 9.8795C15.7645 7.77897 15.9918 3.06233 19.171 1" stroke="#FFA968" stroke-linecap="round"/>
<path d="M15.8056 9.6604C9.74489 7.23936 6.85975 5.62549 8.591 3.47337C10.0803 1.622 14.6512 2.66636 16.0941 9.39147" stroke="#FFA968" stroke-linecap="round"/>
</svg>
