<svg width="35" height="35" viewBox="0 0 35 35" fill="none" xmlns="http://www.w3.org/2000/svg">
<path d="M1 34L19.5 14.5M19.5 14.5C22.0813 15.0596 28.2727 12.4587 27.9879 2.09898C27.9864 2.04499 27.9446 1.9998 27.8906 2.00163C25.3808 2.08671 19.5 5.51985 19.5 14.5Z" stroke="#FFA968" stroke-linecap="round"/>
<path d="M9.19199 25.9944C12.1064 28.3408 19.8109 31.3179 27.3657 24.5147C27.4006 24.4833 27.4106 24.432 27.3865 24.3917C25.5635 21.3468 18.43 18.2679 9.23188 25.5846" stroke="#FFA968" stroke-linecap="round"/>
<path d="M16 19.0227C19.128 21.0758 27.0846 23.2926 33.9449 15.7895C33.9766 15.7549 33.9816 15.7029 33.9537 15.6651C31.8443 12.8111 24.4461 10.4377 16 18.611" stroke="#FFA968" stroke-linecap="round"/>
<path d="M8.70311 7.26774C0.0221564 15.5744 5.22042 22.8092 8.97624 25.4475C9.01762 25.4766 9.07381 25.4674 9.10718 25.4294C16.1234 17.4401 12.6235 9.33169 8.81892 7.25033C8.78122 7.2297 8.73416 7.23803 8.70311 7.26774Z" stroke="#FFA968" stroke-linecap="round"/>
<path d="M17.8085 1.06554C10.4463 7.5368 13.133 15.581 15.4629 18.904C15.4988 18.9552 15.5718 18.9574 15.6148 18.9119C21.7382 12.4327 20.3798 3.8639 17.947 1.07137C17.9113 1.0304 17.8493 1.02966 17.8085 1.06554Z" stroke="#FFA968" stroke-linecap="round"/>
</svg>
