<svg width="20" height="20" viewBox="0 0 20 20" fill="none" xmlns="http://www.w3.org/2000/svg">
<path d="M17.9828 16.082L16.6262 6.59096C16.5857 6.41964 16.4266 6.28311 16.227 6.28311H13.3127V5.32342C13.3127 3.33578 12.0357 2 10.1193 2C8.20297 2 6.92593 3.33578 6.92593 5.32342V6.28311H3.77309C3.5735 6.28311 3.41445 6.41964 3.37391 6.59096L2.01736 16.082C1.93783 16.5611 2.13742 17.0751 2.49605 17.4178C2.85468 17.7952 3.41447 18 3.97268 18H15.9886C16.5468 18 17.1067 17.7939 17.4653 17.4178C17.8629 17.0765 18.0623 16.5625 17.9828 16.082ZM7.72436 5.35674C7.72436 4.12265 8.36368 2.71862 10.1194 2.71862C11.8751 2.71862 12.5145 4.12402 12.5145 5.35674V6.31643H7.72436V5.35674ZM16.9054 16.9732C16.6653 17.1793 16.3472 17.3159 16.0275 17.3159H3.97284C3.6142 17.3159 3.29456 17.1793 3.09497 16.9732C2.89538 16.7671 2.77532 16.4592 2.81586 16.1514L4.1319 7.00166H15.8668L17.1844 16.185C17.225 16.4594 17.105 16.7671 16.9054 16.9732Z" fill="#FFA968"/>
</svg>
