<svg width="138" height="19" viewBox="0 0 138 19" fill="none" xmlns="http://www.w3.org/2000/svg">
<path d="M15.9633 7.68635C15.9633 7.65574 15.9493 7.57811 15.9029 7.4511C15.8583 7.32933 15.789 7.17603 15.6933 7.00055C15.5021 6.64978 15.2079 6.21629 14.7988 5.77428C14.5874 5.54583 14.3452 5.31586 14.0714 5.09336C14.0685 5.09162 14.0652 5.09026 14.0622 5.08848C13.9236 5.00481 13.8222 4.97635 13.753 4.97374C13.6898 4.97137 13.6455 4.98975 13.6081 5.02292C13.5187 5.10196 13.4478 5.28805 13.4414 5.56827C13.4353 5.83702 13.49 6.1484 13.5961 6.42463C13.7035 6.70461 13.8543 6.92441 14.0225 7.03732L14.1638 7.12637C14.5105 7.3335 14.9726 7.53177 15.3638 7.63673C15.5903 7.6975 15.7725 7.72126 15.8876 7.70938C15.9343 7.70455 15.9556 7.6942 15.9633 7.68989V7.68635ZM10.8988 3.66728C10.4333 4.19948 10.2215 4.70487 10.1746 5.13367C10.1163 5.66717 10.3081 6.09317 10.5923 6.34311C10.876 6.59258 11.2513 6.6702 11.5989 6.52032L11.7337 6.4552C12.0236 6.2976 12.1435 6.10355 12.1773 5.90275C12.2185 5.65716 12.1378 5.36207 11.9737 5.04684C11.6863 4.49482 11.1862 3.96062 10.8988 3.66728ZM15.2733 1.47478C15.2662 1.33036 15.1081 1.22346 14.9401 1.28295C13.1484 1.91854 11.9753 2.63007 11.2403 3.31597C12.5112 3.6162 13.516 4.17319 14.2851 4.79166C14.3357 4.8173 14.4126 4.84331 14.5219 4.86299C14.6451 4.88516 14.7973 4.89862 14.9747 4.90286C15.3296 4.91134 15.7712 4.88288 16.2573 4.82489C17.2294 4.70893 18.3607 4.47667 19.298 4.19846C19.7668 4.05929 20.1827 3.91017 20.5036 3.76031C20.664 3.68539 20.7972 3.61147 20.9005 3.54102C21.0056 3.46934 21.07 3.40748 21.1031 3.3585C21.134 3.31278 21.1293 3.29283 21.1271 3.28584C21.1227 3.27198 21.1019 3.23299 21.014 3.17907C20.8344 3.0689 20.4719 2.95568 19.8532 2.86231C18.0975 2.59737 16.5979 2.68141 15.4889 2.89421C15.4584 2.9876 15.4238 3.07876 15.3832 3.16623C15.2607 3.43005 15.0862 3.66897 14.8413 3.84183C14.5944 4.01606 14.2869 4.11559 13.9145 4.11562C13.6583 4.11562 13.4464 4.08477 13.3034 4.00796C13.2284 3.96762 13.1581 3.90665 13.1234 3.81835C13.0879 3.72807 13.1007 3.63792 13.134 3.56228C13.1957 3.42273 13.3412 3.29737 13.5134 3.18882C13.6933 3.07545 13.932 2.96226 14.2205 2.85744C14.4941 2.75806 14.8168 2.66516 15.1833 2.58543C15.269 2.22695 15.2909 1.83287 15.2733 1.47478ZM15.0508 2.98813C14.7899 3.05204 14.557 3.12318 14.3544 3.19679C14.0834 3.29522 13.8715 3.39752 13.7211 3.49229C13.5797 3.58142 13.5138 3.65185 13.4899 3.69165C13.546 3.72105 13.6758 3.75278 13.9145 3.75278C14.2127 3.75276 14.4404 3.67438 14.6175 3.54944C14.7965 3.42307 14.9347 3.24098 15.0379 3.0187C15.0426 3.00873 15.0464 2.99823 15.0508 2.98813ZM8.3358 0.0323095C8.42151 -0.0247388 8.53932 -0.00422367 8.59888 0.0779405L8.28826 0.285273C8.22873 0.202937 8.25002 0.0894441 8.3358 0.0323095ZM16.3413 7.68635C16.3413 7.798 16.2967 7.89853 16.2066 7.96944C16.1245 8.03394 16.0221 8.06028 15.9278 8.07C15.7398 8.08939 15.5019 8.05057 15.2622 7.98627C14.8374 7.87232 14.3409 7.66015 13.9611 7.43294L13.8061 7.33503C13.5478 7.1618 13.3612 6.86299 13.2411 6.55C13.1195 6.2332 13.0562 5.87667 13.0634 5.5603C13.0704 5.25544 13.1443 4.93908 13.3514 4.75578C13.3925 4.7194 13.4379 4.68909 13.4871 4.66585C12.9286 4.29959 12.2675 3.97876 11.4946 3.7581C11.7699 4.06473 12.094 4.46695 12.3116 4.8847C12.4894 5.22614 12.6105 5.60399 12.5506 5.96035C12.492 6.30951 12.2662 6.60478 11.8412 6.81139L11.754 6.85126C11.252 7.06771 10.7179 6.94556 10.3371 6.6107C9.95679 6.27631 9.72872 5.73332 9.79844 5.09557C9.85008 4.62332 10.0626 4.10514 10.4894 3.57558C10.249 3.53909 9.97697 3.48017 9.69367 3.40989C9.21212 3.29041 8.67824 3.1338 8.17702 2.98547C7.67312 2.83635 7.20449 2.69648 6.84546 2.60714C6.66535 2.56231 6.51992 2.53184 6.41484 2.51897C6.41155 2.51857 6.40829 2.51845 6.40514 2.51809C6.46409 2.97337 6.66637 3.59177 7.091 4.06511C7.51457 4.53724 8.16748 4.87594 9.16566 4.75445L9.20397 4.75356C9.29161 4.75994 9.3655 4.82478 9.37705 4.91172C9.39018 5.01114 9.31678 5.10202 9.2132 5.11462L9.00596 5.13456C7.98905 5.20299 7.27646 4.82832 6.80438 4.30213C6.37122 3.8193 6.14722 3.21715 6.05714 2.73472L6.02621 2.53625C6.02621 2.53625 6.02559 2.53212 6.02206 2.51942C6.01921 2.50915 6.01222 2.48559 6.00775 2.46315C6 2.42412 5.98249 2.30817 6.08345 2.22127L6.10837 2.20222C6.16838 2.16253 6.23676 2.15369 6.27868 2.15083C6.33506 2.14699 6.3986 2.15138 6.46284 2.15924C6.59226 2.1751 6.75649 2.21002 6.94054 2.25582C7.30999 2.34777 7.78874 2.49077 8.28826 2.63859C8.79055 2.78724 9.31643 2.9415 9.78829 3.05857C10.0474 3.12286 10.2847 3.17371 10.4894 3.20743C10.2558 2.922 9.94817 2.5254 9.63321 2.10785C9.14329 1.45837 8.6203 0.744574 8.28826 0.285273L8.4438 0.181607L8.59888 0.0779405C8.92993 0.535871 9.45155 1.24811 9.93967 1.8952C10.321 2.40079 10.6753 2.85736 10.9029 3.12547C11.6883 2.36715 12.9386 1.60577 14.809 0.942271C15.1899 0.807322 15.6309 1.04135 15.6513 1.45794C15.6673 1.78339 15.6532 2.15076 15.5862 2.50657C16.722 2.30886 18.2032 2.24608 19.9119 2.50391C20.5365 2.59817 20.967 2.71972 21.2176 2.87339C21.3443 2.95112 21.4482 3.05126 21.489 3.18173C21.5318 3.31912 21.4927 3.44936 21.4207 3.55608C21.3508 3.65949 21.2434 3.7526 21.1197 3.83696C20.9942 3.9226 20.841 4.00594 20.6688 4.08638C20.3243 4.24724 19.8888 4.40311 19.4097 4.54534C18.4509 4.82993 17.2978 5.06651 16.3039 5.18506C15.8072 5.24432 15.3454 5.27479 14.965 5.26569C14.9129 5.26445 14.8621 5.26183 14.8127 5.25905C14.9067 5.35058 14.9966 5.44179 15.0813 5.53328C15.5114 5.99802 15.8233 6.45598 16.0284 6.83221C16.1309 7.02023 16.208 7.18952 16.2596 7.3306C16.3092 7.46618 16.3413 7.59184 16.3413 7.68635Z" fill="#99A871"/>
<path d="M0 8.19887C4.1903e-05 5.39849 1.33503 3.67311 3.00881 2.66586C4.56768 1.72781 6.41212 1.41634 7.72861 1.41418L7.98454 1.41764L8.02181 1.4224C8.10608 1.44148 8.16741 1.51508 8.16455 1.60072C8.16121 1.69847 8.0754 1.77516 7.97272 1.77211L7.7268 1.76865C6.46318 1.77103 4.69289 2.07179 3.20791 2.96536C1.6351 3.91179 0.37279 5.52758 0.372748 8.19887C0.372748 14.9071 6.53301 18.869 13.2503 18.6356L13.5644 18.6222C16.7965 18.4568 19.6525 17.4841 21.7162 15.8613C23.8431 14.1889 25.136 11.8207 25.136 8.90651C25.1359 6.08687 23.9059 4.12791 22.4317 2.84201C21.0436 1.63116 19.4415 1.01955 18.451 0.854556L18.2615 0.827721L18.2247 0.819498C18.1426 0.793192 18.0887 0.714924 18.0996 0.629928C18.1106 0.544943 18.1829 0.481565 18.2692 0.474983L18.3069 0.475416L18.5115 0.504847C19.5756 0.681378 21.2434 1.32477 22.6831 2.58059C24.2251 3.92568 25.5087 5.97617 25.5087 8.90651C25.5087 11.9308 24.1624 14.3978 21.9535 16.1348C19.8168 17.8149 16.8799 18.8076 13.5839 18.9762L13.2639 18.9901C6.40778 19.2283 0 15.1705 0 8.19887ZM22.8404 6.65071C22.885 7.14714 22.8924 7.83308 22.7995 8.48149C22.7137 9.07948 22.5373 9.68405 22.1894 10.0638C22.3101 10.6335 22.2156 11.3375 21.563 11.7886C21.6891 12.0899 21.7516 12.4468 21.6749 12.8135C21.5902 13.2178 21.3403 13.6168 20.8584 13.9535L20.7589 14.0201C20.249 14.3462 19.7434 14.4578 19.3265 14.427C18.92 14.3969 18.5668 14.2256 18.4228 13.9522L18.5897 13.873L18.7561 13.7933C18.8192 13.9133 19.0202 14.0485 19.3552 14.0734C19.6799 14.0974 20.1038 14.0123 20.5516 13.7258L20.6375 13.6683C21.0525 13.3785 21.2447 13.053 21.3094 12.7442C21.3656 12.4754 21.3268 12.2069 21.2362 11.9691L21.1471 12.008C20.7547 12.1628 20.4465 12.2045 20.2234 12.1275C20.1057 12.0868 20.0164 12.0142 19.9607 11.9193C19.9067 11.8273 19.8906 11.725 19.8957 11.6297C19.9057 11.4425 19.9988 11.2479 20.1298 11.1078C20.2583 10.9702 20.4617 10.8479 20.6971 10.8966L20.7553 10.9117C20.8905 10.9543 21.0219 11.0453 21.1362 11.1545C21.2269 11.2412 21.3129 11.3472 21.3907 11.4661C21.784 11.1669 21.8966 10.7383 21.8544 10.324C21.6895 10.4103 21.5016 10.4576 21.2894 10.4521L21.2216 10.4486C20.7725 10.4144 20.4599 10.303 20.3098 10.0985C20.1452 9.87428 20.2279 9.62325 20.3557 9.44708C20.486 9.26746 20.6944 9.11242 20.9075 9.02423C21.111 8.94007 21.3808 8.89363 21.5912 9.03029L21.6389 9.06405C21.7489 9.14837 21.8492 9.27027 21.933 9.4077C21.9763 9.47863 22.0158 9.55641 22.0521 9.63882C22.2394 9.33712 22.3624 8.91065 22.4308 8.43345C22.5193 7.81652 22.5123 7.15732 22.4694 6.68058L22.6549 6.66586L22.8404 6.65071ZM18.506 13.7146C18.598 13.6707 18.71 13.7058 18.7561 13.7933L18.4228 13.9522C18.3769 13.8647 18.4142 13.7584 18.506 13.7146ZM20.618 11.2428C20.5693 11.2328 20.4926 11.2531 20.408 11.3436C20.3257 11.4317 20.2727 11.5512 20.2675 11.6475C20.265 11.6939 20.2739 11.726 20.2857 11.7462C20.2958 11.7634 20.3129 11.7813 20.3502 11.7942C20.4374 11.8243 20.6343 11.8269 21.0048 11.6808L21.073 11.6509C21.0097 11.5547 20.9417 11.4708 20.8725 11.4047C20.7923 11.328 20.7204 11.282 20.6662 11.2588L20.618 11.2428ZM21.3817 9.32287C21.333 9.29124 21.2224 9.28097 21.0562 9.3497C20.8997 9.41442 20.7488 9.52927 20.6621 9.64877C20.5729 9.77168 20.5808 9.8492 20.6148 9.89547C20.6633 9.96147 20.8231 10.0624 21.2512 10.095L21.3426 10.0976C21.5114 10.094 21.6526 10.0415 21.7753 9.95087C21.7312 9.81422 21.6742 9.6895 21.6108 9.58558C21.5503 9.48663 21.4888 9.41243 21.4339 9.36355L21.3817 9.32287ZM22.639 6.48884C22.7414 6.48058 22.8316 6.55322 22.8404 6.65071L22.4694 6.68058C22.4608 6.58311 22.5366 6.4972 22.639 6.48884Z" fill="#F58635"/>
<path d="M137.125 3.69761H138V11.3542C138 13.72 136.123 15.4623 133.455 15.4623C130.796 15.4623 128.911 13.712 128.911 11.3542V3.69761H129.786V11.3063C129.786 13.2484 131.284 14.6711 133.455 14.6631C135.627 14.6711 137.116 13.2484 137.125 11.3063V3.69761Z" fill="#F58635"/>
<path d="M123.99 9.48405C123.998 13.0726 121.852 15.4303 118.806 15.4303C115.734 15.4303 113.605 13.0726 113.605 9.48405C113.605 5.8955 115.743 3.53777 118.806 3.53777C121.852 3.53777 123.998 5.88751 123.99 9.48405ZM114.463 9.48405C114.463 12.649 116.256 14.6391 118.806 14.6311C121.322 14.6391 123.14 12.657 123.132 9.48405C123.132 6.3111 121.322 4.329 118.806 4.32101C116.281 4.329 114.463 6.29511 114.463 9.48405Z" fill="#F58635"/>
<path d="M100.79 3.69761H101.817L105.587 9.24428H105.671L109.425 3.69761H110.451L106.075 10.1074V15.2705H105.183V10.1074L100.79 3.69761Z" fill="#F58635"/>
<path d="M89.1195 15.2705V14.6471L93.1928 10.3632C94.8928 8.56493 95.4903 7.74172 95.4987 6.6228C95.4903 5.24812 94.3458 4.28904 92.8057 4.28904C91.1898 4.28904 90.1126 5.35202 90.1126 6.75068H89.271C89.2626 4.91244 90.769 3.53777 92.8225 3.53777C94.8507 3.53777 96.3235 4.86449 96.3403 6.6228C96.3235 7.90956 95.7175 8.86065 93.6809 10.9706L90.3819 14.4393V14.5032H96.8453V15.2705H89.1195Z" fill="#F58635"/>
<path d="M72.6353 3.69761H73.6284L78.2234 14.0716H78.3076L82.9026 3.69761H83.8788V15.2705H83.0541V5.56781H82.9699L78.661 15.2705H77.8531L73.5442 5.56781H73.4769V15.2705H72.6353V3.69761Z" fill="#F58635"/>
<path d="M60.056 15.2705V3.69761H63.8768C66.2837 3.69761 67.6639 5.09627 67.6639 7.10234C67.6639 8.66883 66.8307 9.8437 65.3411 10.2913L68.2025 15.2705H67.1926L64.4575 10.4671C64.2807 10.4831 64.0872 10.4911 63.8936 10.4911H60.9312V15.2705H60.056ZM60.9312 9.72382H63.8599C65.7367 9.72382 66.7971 8.70879 66.7887 7.10234C66.7971 5.50388 65.7367 4.45688 63.8599 4.44889H60.9312V9.72382Z" fill="#F58635"/>
<path d="M46.9037 15.2705H45.978L50.3711 3.69761H51.3641L55.774 15.2705H54.8483L53.4849 11.642H48.2671L46.9037 15.2705ZM48.5448 10.8907H53.2072L50.9097 4.76858H50.8423L48.5448 10.8907Z" fill="#F58635"/>
<path d="M36.8163 15.2706V3.69774H43.7173V4.44902H37.6915V9.10055H43.145V9.85182H37.6915V15.2706H36.8163Z" fill="#F58635"/>
</svg>
