<svg xmlns="http://www.w3.org/2000/svg" xmlns:xlink="http://www.w3.org/1999/xlink" fill="none" version="1.1" width="158.64599609375" height="22.999998092651367" viewBox="0 0 158.64599609375 22.999998092651367"><g><path d="M9.88534,0.094349C9.81688,-0.00511286,9.68144,-0.029947,9.5829,0.0391115C9.48429,0.108274,9.45982,0.245661,9.52825,0.345331C9.90998,0.901327,10.5112,1.76539,11.0744,2.55161C11.4365,3.05706,11.7902,3.53716,12.0587,3.88267C11.8234,3.84186,11.5506,3.7803,11.2527,3.70248C10.7103,3.56077,10.1057,3.37402,9.52825,3.19408C8.954,3.01514,8.40363,2.84204,7.9789,2.73073C7.76732,2.67529,7.57852,2.63302,7.42973,2.61382C7.35588,2.6043,7.28284,2.59898,7.21802,2.60363C7.16983,2.6071,7.09122,2.6178,7.02223,2.66584L6.99358,2.6889C6.87752,2.79411,6.89765,2.93446,6.90656,2.98171C6.9117,3.00888,6.91973,3.03739,6.92301,3.04982C6.92707,3.0652,6.92779,3.0702,6.92779,3.0702L6.96334,3.31046C7.06689,3.89444,7.32441,4.62336,7.82238,5.20784C8.36509,5.84481,9.18428,6.29835,10.3533,6.21552L10.5916,6.19139C10.7106,6.17612,10.795,6.06612,10.7799,5.94577C10.7667,5.84053,10.6817,5.76204,10.581,5.75431L10.5369,5.75538C9.38941,5.90245,8.63882,5.49245,8.15188,4.92092C7.66372,4.34793,7.43118,3.59934,7.36341,3.04821C7.36703,3.04865,7.37077,3.0488,7.37455,3.04928C7.49536,3.06486,7.66255,3.10175,7.8696,3.15601C8.28234,3.26416,8.82109,3.43348,9.40038,3.61399C9.97658,3.79355,10.5903,3.98313,11.1439,4.12776C11.4696,4.21284,11.7824,4.28416,12.0587,4.32833C11.568,4.96938,11.3237,5.59665,11.2644,6.16832C11.1842,6.94033,11.4464,7.59763,11.8836,8.00242C12.3214,8.40779,12.9354,8.55564,13.5125,8.29363L13.6128,8.24536C14.1013,7.99526,14.3609,7.63783,14.4283,7.21516C14.4971,6.78378,14.3579,6.32638,14.1535,5.91305C13.9034,5.40736,13.5308,4.92047,13.2143,4.54928C14.1028,4.81639,14.8628,5.20477,15.5049,5.64813C15.4484,5.67627,15.3962,5.71296,15.3489,5.75699C15.1108,5.97889,15.0259,6.36185,15.0178,6.73089C15.0095,7.11386,15.0823,7.54546,15.2221,7.92895C15.3602,8.30783,15.5747,8.66954,15.8716,8.87925L16.0498,8.99777C16.4864,9.27281,17.0573,9.52965,17.5456,9.66759C17.8212,9.74543,18.0946,9.79242,18.3107,9.76895C18.4191,9.75718,18.5369,9.7253,18.6312,9.64721C18.7349,9.56138,18.7861,9.43968,18.7861,9.30453C18.7861,9.19012,18.7492,9.03801,18.6922,8.87389C18.6329,8.7031,18.5442,8.49817,18.4264,8.27057C18.1906,7.81514,17.8321,7.26076,17.3376,6.69818C17.2403,6.58743,17.1369,6.47701,17.0288,6.36621C17.0856,6.36959,17.144,6.37275,17.2039,6.37426C17.6412,6.38527,18.1721,6.34839,18.7432,6.27665C19.8857,6.13314,21.2114,5.84676,22.3136,5.50226C22.8644,5.33008,23.365,5.14139,23.761,4.94667C23.959,4.84929,24.1351,4.74841,24.2794,4.64474C24.4216,4.54262,24.5451,4.4299,24.6254,4.30473C24.7082,4.17554,24.7532,4.01788,24.7039,3.85157C24.657,3.69363,24.5376,3.57241,24.3919,3.47831C24.1038,3.29229,23.6089,3.14515,22.8909,3.03105C20.9266,2.71894,19.2238,2.79493,17.9181,3.03427C17.995,2.60355,18.0112,2.15884,17.9929,1.76488C17.9694,1.26058,17.4624,0.977284,17.0246,1.14064C14.8743,1.94383,13.437,2.8655,12.5341,3.78346C12.2724,3.45891,11.8652,2.90622,11.4267,2.29419C10.8656,1.51087,10.2659,0.648686,9.88534,0.094349ZM9.88534,0.094349L9.70706,0.21984L9.52825,0.345331L9.88534,0.094349ZM3.45895,3.22709C1.53476,4.4464,0.0000481721,6.53501,0,9.92494C0,18.3642,7.36645,23.2764,15.2483,22.988L15.6162,22.9712C19.4052,22.7671,22.7816,21.5654,25.2379,19.5316C27.7773,17.429,29.325,14.4425,29.325,10.7816C29.325,7.23431,27.8494,4.75213,26.0767,3.12387C24.4216,1.60367,22.5043,0.824826,21.281,0.61113L21.0458,0.575504L21.0024,0.57498C20.9033,0.582947,20.8202,0.659668,20.8075,0.762545C20.7949,0.865435,20.8569,0.96018,20.9512,0.992024L20.9936,1.00198L21.2115,1.03446C22.3501,1.23419,24.1918,1.97457,25.7877,3.44033C27.4824,4.99694,28.8965,7.36832,28.8965,10.7816C28.8965,14.3092,27.4102,17.176,24.9652,19.2005C22.5926,21.1649,19.3094,22.3424,15.5937,22.5426L15.2326,22.5589C7.51041,22.8415,0.428515,18.0454,0.428515,9.92494C0.428562,6.69129,1.87972,4.73532,3.68784,3.58964C5.39498,2.50795,7.43013,2.14387,8.88279,2.14099L9.16551,2.14518C9.28355,2.14887,9.3822,2.05605,9.38604,1.93771C9.38932,1.83404,9.31882,1.74495,9.22195,1.72185L9.1791,1.71609L8.88488,1.7119C7.37143,1.71451,5.25105,2.09156,3.45895,3.22709ZM17.1752,1.55305C17.3684,1.48102,17.5501,1.61043,17.5583,1.78526C17.5785,2.21874,17.5534,2.69578,17.4549,3.12973C17.0335,3.22625,16.6625,3.33871,16.348,3.45901C16.0163,3.58589,15.742,3.72291,15.5352,3.86015C15.3372,3.99155,15.1699,4.1433,15.099,4.31224C15.0606,4.4038,15.046,4.51292,15.0868,4.62221C15.1267,4.72911,15.2074,4.8029,15.2937,4.85174C15.4581,4.94472,15.7017,4.98206,15.9963,4.98206C16.4243,4.98204,16.7778,4.86155,17.0617,4.65064C17.3433,4.44138,17.5438,4.15217,17.6846,3.8328C17.7313,3.72692,17.7711,3.61657,17.8061,3.50352C19.0811,3.24592,20.805,3.14419,22.8235,3.46491C23.5347,3.57793,23.9514,3.71499,24.1579,3.84835C24.259,3.91362,24.2829,3.96082,24.2879,3.9776C24.2904,3.98606,24.2958,4.0102,24.2603,4.06555C24.2223,4.12484,24.1482,4.19973,24.0274,4.2865C23.9086,4.37178,23.7555,4.46126,23.5711,4.55196C23.2022,4.73337,22.7241,4.91387,22.1852,5.08235C21.1077,5.41913,19.8071,5.70029,18.6896,5.84065C18.1307,5.91086,17.6231,5.9453,17.215,5.93504C17.0111,5.9299,16.8361,5.91361,16.6945,5.88677C16.5689,5.86295,16.4804,5.83147,16.4223,5.80043C15.5381,5.05175,14.383,4.3775,12.922,4.01406C13.7669,3.18377,15.1155,2.32244,17.1752,1.55305ZM16.5019,3.8698C16.7349,3.78069,17.0026,3.69458,17.3026,3.61721C17.2974,3.62944,17.2931,3.64215,17.2877,3.65422C17.1691,3.9233,17.0102,4.14372,16.8044,4.29669C16.6008,4.44794,16.3391,4.54282,15.9963,4.54284C15.7218,4.54284,15.5725,4.50442,15.5081,4.46883C15.5356,4.42066,15.6113,4.3354,15.7739,4.22751C15.9468,4.11279,16.1904,3.98896,16.5019,3.8698ZM102.453,17.7307L102.453,18.4853L111.334,18.4853L111.334,17.5565L103.904,17.5565L103.904,17.4791L107.696,13.2802C110.038,10.726,110.734,9.57473,110.754,8.01707C110.734,5.88859,109.041,4.28256,106.71,4.28256C104.349,4.28256,102.617,5.94664,102.627,8.17187L103.594,8.17187C103.594,6.47876,104.833,5.192,106.69,5.192C108.461,5.192,109.777,6.35299,109.786,8.01707C109.777,9.37156,109.09,10.3681,107.135,12.5449L102.453,17.7307ZM142.54,11.4807C142.55,15.8247,140.083,18.6788,136.58,18.6788C133.049,18.6788,130.601,15.8247,130.601,11.4807C130.601,7.13666,133.059,4.28256,136.58,4.28256C140.083,4.28256,142.55,7.12698,142.54,11.4807ZM11.6968,6.21445C11.7507,5.69537,11.9943,5.08358,12.5293,4.43934C12.8597,4.79444,13.4346,5.44109,13.7651,6.10933C13.9538,6.49092,14.0465,6.84814,13.9991,7.14544C13.9603,7.3885,13.8225,7.62341,13.4892,7.81419L13.3342,7.89302C12.9346,8.07446,12.5031,7.98048,12.177,7.67851C11.8503,7.37594,11.6298,6.86026,11.6968,6.21445ZM52.8567,18.4853L53.9209,18.4853L55.4883,14.0929L61.4867,14.0929L63.0541,18.4853L64.1183,18.4853L59.0486,4.47606L57.907,4.47606L52.8567,18.4853ZM69.0409,18.4853L69.0409,4.47606L73.4333,4.47606C76.2003,4.47606,77.787,6.16917,77.787,8.59757C77.787,10.4938,76.8292,11.9161,75.1167,12.4579L78.4062,18.4853L77.2452,18.4853L74.1009,12.6707C73.8977,12.6901,73.6752,12.6997,73.4526,12.6997L70.0471,12.6997L70.0471,18.4853L69.0409,18.4853ZM83.5022,4.47606L84.6438,4.47606L89.9263,17.0341L90.0231,17.0341L95.3055,4.47606L96.4278,4.47606L96.4278,18.4853L95.4797,18.4853L95.4797,6.73998L95.3829,6.73998L90.4294,18.4853L89.5006,18.4853L84.5471,6.73998L84.4697,6.73998L84.4697,18.4853L83.5022,18.4853L83.5022,4.47606ZM115.869,4.47606L117.049,4.47606L121.384,11.1904L121.48,11.1904L125.795,4.47606L126.976,4.47606L121.945,12.2353L121.945,18.4853L120.919,18.4853L120.919,12.2353L115.869,4.47606ZM157.64,4.47606L158.646,4.47606L158.646,13.7446C158.646,16.6084,156.488,18.7175,153.422,18.7175C150.364,18.7175,148.197,16.5987,148.197,13.7446L148.197,4.47606L149.203,4.47606L149.203,13.6866C149.203,16.0376,150.925,17.7597,153.422,17.75C155.918,17.7597,157.63,16.0376,157.64,13.6866L157.64,4.47606ZM42.3243,18.4855L42.3243,4.47621L50.2578,4.47621L50.2578,5.38566L43.3305,5.38566L43.3305,11.0165L49.5999,11.0165L49.5999,11.9259L43.3305,11.9259L43.3305,18.4855L42.3243,18.4855ZM131.588,11.4807C131.588,15.312,133.649,17.721,136.58,17.7113C139.473,17.721,141.563,15.3216,141.553,11.4807C141.553,7.63975,139.473,5.24037,136.58,5.2307C133.678,5.24037,131.588,7.6204,131.588,11.4807ZM70.0471,11.7709L73.4139,11.7709C75.5714,11.7709,76.7905,10.5422,76.7808,8.59757C76.7905,6.66259,75.5714,5.39517,73.4139,5.3855L70.0471,5.3855L70.0471,11.7709ZM61.1674,13.1835L55.8076,13.1835L58.4488,5.77249L58.5262,5.77249L61.1674,13.1835ZM18.2821,9.01976C18.3355,9.1735,18.3515,9.26747,18.3516,9.30453L18.3516,9.30882C18.3427,9.31403,18.3182,9.32656,18.2646,9.33241C18.1322,9.34679,17.9228,9.31803,17.6623,9.24446C17.2126,9.11741,16.6814,8.87739,16.2828,8.62666L16.1204,8.51887C15.927,8.38218,15.7537,8.1161,15.6301,7.77718C15.5083,7.44279,15.4453,7.06586,15.4524,6.74054C15.4598,6.40133,15.5413,6.17606,15.6439,6.08037C15.687,6.04023,15.7379,6.01798,15.8105,6.02085C15.8901,6.024,16.0067,6.05845,16.166,6.15974C16.1694,6.16189,16.1732,6.16354,16.1767,6.16564C16.4913,6.43499,16.7698,6.71337,17.0129,6.98991C17.4832,7.52499,17.8214,8.04974,18.0412,8.47435C18.1511,8.68677,18.2309,8.87235,18.2821,9.01976ZM26.2575,8.05086C26.2474,7.93284,26.1437,7.84491,26.026,7.85492C25.9083,7.86503,25.8211,7.96902,25.8311,8.08702C25.8804,8.66412,25.8883,9.4621,25.7866,10.2089C25.708,10.7866,25.5666,11.3028,25.3513,11.668C25.3096,11.5683,25.2642,11.4741,25.2144,11.3883C25.118,11.2219,25.0027,11.0743,24.8763,10.9723L24.8214,10.9314C24.5795,10.766,24.2694,10.8222,24.0355,10.9241C23.7905,11.0308,23.5509,11.2185,23.4011,11.4359C23.2542,11.6492,23.1591,11.9531,23.3483,12.2245C23.5209,12.472,23.8802,12.6069,24.3966,12.6483L24.4745,12.6525C24.7185,12.6592,24.9344,12.602,25.124,12.4974C25.1725,12.999,25.0431,13.5179,24.591,13.8801C24.5014,13.7361,24.4026,13.6078,24.2983,13.5028C24.167,13.3707,24.0158,13.2605,23.8604,13.2089L23.7935,13.1906C23.523,13.1317,23.2892,13.2798,23.1414,13.4462C22.9908,13.6159,22.8837,13.8514,22.8722,14.0781C22.8664,14.1935,22.8849,14.3172,22.947,14.4286C23.011,14.5435,23.1137,14.6314,23.249,14.6806C23.5055,14.7739,23.8598,14.7233,24.3109,14.536L24.4133,14.4889C24.5175,14.7768,24.5621,15.1018,24.4974,15.4272C24.4231,15.8011,24.2022,16.1951,23.7251,16.5458L23.6263,16.6155C23.1115,16.9622,22.6242,17.0653,22.2509,17.0362C21.8658,17.0061,21.6348,16.8424,21.5621,16.6972C21.5091,16.5913,21.3804,16.5487,21.2747,16.6018C21.1692,16.655,21.1263,16.7836,21.1791,16.8895C21.3446,17.2204,21.7506,17.4278,22.218,17.4642C22.6971,17.5015,23.2784,17.3665,23.8646,16.9717L23.979,16.8911C24.533,16.4834,24.8203,16.0004,24.9176,15.511C25.0058,15.0671,24.934,14.6351,24.789,14.2704C25.5393,13.7244,25.6479,12.8721,25.5092,12.1825C25.9091,11.7228,26.1119,10.991,26.2105,10.2671C26.3173,9.48215,26.3088,8.6518,26.2575,8.05086ZM26.2575,8.05086L25.8311,8.08702L26.0443,8.0692L26.2575,8.05086ZM21.3709,16.7936L21.1791,16.8895L21.5621,16.6972L21.3709,16.7936ZM24.2064,11.3181C24.3974,11.2349,24.5246,11.2473,24.5805,11.2856L24.6406,11.3348C24.7037,11.394,24.7745,11.4838,24.8439,11.6036C24.9168,11.7294,24.9824,11.8804,25.0331,12.0458C24.892,12.1555,24.7297,12.219,24.5356,12.2234L24.4306,12.2203C23.9384,12.1807,23.7547,12.0586,23.6989,11.9787C23.6599,11.9227,23.6508,11.8289,23.7533,11.6801C23.853,11.5354,24.0265,11.3964,24.2064,11.3181ZM23.4612,13.7318C23.5584,13.6222,23.6467,13.5976,23.7026,13.6097L23.758,13.6291C23.8203,13.6571,23.903,13.7128,23.9952,13.8057C24.0748,13.8857,24.1529,13.9873,24.2257,14.1038L24.1473,14.1399C23.7213,14.3168,23.495,14.3137,23.3948,14.2772C23.3519,14.2615,23.3322,14.2399,23.3206,14.219C23.3071,14.1947,23.2968,14.1557,23.2997,14.0996C23.3057,13.983,23.3666,13.8384,23.4612,13.7318Z" fill-rule="evenodd" fill="#F58635" fill-opacity="1"/></g></svg>