<svg width="38" height="40" viewBox="0 0 38 40" fill="none" xmlns="http://www.w3.org/2000/svg">
<path d="M9.73047 23.5C10.4551 24.2194 12.4044 26.6257 12.4044 29.0428C12.4044 32.0642 9.79569 38.5387 18.9261 38.9703C28.0566 39.4019 27.6218 35.0856 28.0566 29.0428C28.4044 24.2086 28.7305 24 29.7305 23" stroke="#FFA968" stroke-linecap="round"/>
<path d="M29.6988 22.6766C26.1199 22.3607 25.0379 19.0814 24.9043 17.1444C24.897 17.0397 24.7392 17.001 24.6826 17.0893C23.9185 18.2811 22.0501 20.1292 19.2059 20.1292C16.4038 20.1292 15.0108 18.3354 14.5331 17.1427C14.4937 17.0442 14.3256 17.0516 14.299 17.1543C13.2086 21.3486 8.54673 26.3595 3.02921 22.252C-0.741781 19.4446 1.20001 13.0986 5.12375 12.0853C5.17493 12.072 5.20832 12.0224 5.20141 11.97C5.08163 11.0614 5.27574 8.93543 6.96421 6.96786C8.66362 4.98755 11.8768 5.2524 13.3943 5.65855C13.4587 5.67579 13.5223 5.62772 13.5255 5.56114C13.5945 4.10421 14.7972 1.35357 19.2059 1.02426C23.6545 0.691955 25.3968 3.85454 25.743 5.58188C25.755 5.64159 25.815 5.67776 25.8729 5.65888C27.6378 5.08343 30.6276 4.04805 33.1964 6.5434C35.3515 8.63694 35.0987 11.0041 34.9515 12.0198C34.9474 12.0477 34.9563 12.0761 34.9741 12.0979C40.211 18.5168 34.4992 23.1004 29.6988 22.6766Z" stroke="#FFA968" stroke-linecap="round"/>
<ellipse cx="18.668" cy="27.3" rx="0.5625" ry="0.675" fill="#FFA968"/>
<ellipse cx="23.168" cy="27.3" rx="0.5625" ry="0.675" fill="#FFA968"/>
<path d="M19.2305 31C19.4123 31.3333 19.9396 32 20.5941 32C21.685 32 21.9577 31.3333 22.2305 31" stroke="#FFA968" stroke-linecap="round"/>
</svg>
